<svg xmlns="http://www.w3.org/2000/svg" xmlns:xlink="http://www.w3.org/1999/xlink" xmlns:inkscape="http://www.inkscape.org/namespaces/inkscape" version="1.1" width="263.582" height="62.159" viewBox="0 0 263.582 62.159">
<defs>
<clipPath id="clip_1">
<path transform="matrix(1,0,0,-1,0,62.159)" d="M0 62.159H263.582V0H0Z"/>
</clipPath>
</defs>
<g inkscape:groupmode="layer" inkscape:label="Ebene 1">
<g clip-path="url(#clip_1)">
<path transform="matrix(1,0,0,-1,88.7908,47.9394)" d="M0 0-.322 2.71V4.833L-3.089 4.889V6.311H1.819V0ZM-3.298-.266C-4.302-.266-5.209 0-6.017 .53-6.826 1.061-7.469 1.802-7.946 2.753-8.423 3.703-8.661 4.814-8.661 6.084-8.661 7.088-8.514 7.988-8.221 8.784-7.926 9.58-7.518 10.259-6.993 10.822-6.469 11.384-5.853 11.812-5.146 12.106-4.438 12.399-3.671 12.546-2.843 12.546-1.693 12.546-.728 12.297 .052 11.797 .832 11.299 1.44 10.512 1.876 9.437L-.417 8.907C-.739 9.431-1.11 9.831-1.53 10.106-1.951 10.38-2.426 10.518-2.956 10.518-3.563 10.518-4.116 10.34-4.615 9.983-5.114 9.625-5.512 9.116-5.809 8.453-6.106 7.79-6.254 6.999-6.254 6.084-6.254 5.224-6.123 4.473-5.861 3.828-5.599 3.184-5.231 2.682-4.757 2.322-4.284 1.961-3.734 1.782-3.108 1.782-2.577 1.782-2.102 1.9-1.682 2.137-1.262 2.374-.931 2.713-.687 3.156-.444 3.598-.322 4.131-.322 4.757H.171C.171 3.734 .049 2.846-.195 2.094-.438 1.342-.815 .761-1.327 .35-1.838-.06-2.496-.266-3.298-.266" fill="#231f20"/>
<path transform="matrix(1,0,0,-1,106.3208,47.9394)" d="M0 0V5.383C0 6.064-.164 6.579-.493 6.926-.821 7.274-1.251 7.448-1.782 7.448-2.451 7.448-2.978 7.177-3.364 6.633-3.749 6.09-3.942 5.268-3.942 4.169H-4.87C-4.87 5.136-4.781 5.956-4.601 6.628-4.42 7.301-4.165 7.845-3.833 8.259-3.501 8.672-3.111 8.975-2.663 9.168-2.214 9.361-1.718 9.457-1.175 9.457-.423 9.457 .207 9.288 .716 8.95 1.224 8.612 1.607 8.137 1.867 7.524 2.126 6.911 2.255 6.197 2.255 5.383V0ZM-12.489 0V9.191H-10.537L-10.291 7.619C-9.988 8.231-9.587 8.691-9.088 8.997-8.589 9.304-8.016 9.457-7.372 9.457-6.614 9.457-5.981 9.288-5.472 8.95-4.964 8.612-4.582 8.137-4.326 7.524-4.07 6.911-3.942 6.197-3.942 5.383V0H-6.178V5.383C-6.178 6.064-6.343 6.579-6.671 6.926-6.999 7.274-7.429 7.448-7.96 7.448-8.408 7.448-8.805 7.325-9.149 7.079-9.493 6.832-9.763 6.461-9.959 5.965-10.155 5.469-10.253 4.852-10.253 4.113V0Z" fill="#231f20"/>
<path transform="matrix(1,0,0,-1,116.5168,48.2051)" d="M0 0C-.575 0-1.101 .161-1.578 .483-2.055 .806-2.435 1.287-2.719 1.929-3.004 2.569-3.146 3.373-3.146 4.341H-2.464C-2.464 3.879-2.359 3.474-2.151 3.127-1.943 2.78-1.674 2.51-1.345 2.317-1.017 2.124-.676 2.028-.322 2.028 .114 2.028 .502 2.148 .843 2.388 1.185 2.629 1.455 2.963 1.653 3.393 1.853 3.822 1.952 4.327 1.952 4.909 1.952 5.471 1.854 5.962 1.658 6.382 1.462 6.803 1.192 7.13 .848 7.363 .504 7.597 .107 7.714-.341 7.714-.714 7.714-1.061 7.623-1.384 7.443-1.706 7.263-1.966 7.004-2.165 6.667-2.364 6.329-2.464 5.919-2.464 5.439H-3.146C-3.146 6.368-3.012 7.151-2.743 7.79-2.475 8.427-2.093 8.909-1.597 9.234-1.101 9.56-.512 9.722 .171 9.722 .916 9.722 1.593 9.525 2.203 9.13 2.812 8.736 3.299 8.177 3.662 7.454 4.026 6.729 4.207 5.881 4.207 4.909 4.207 3.923 4.019 3.063 3.643 2.326 3.268 1.591 2.76 1.019 2.122 .612 1.484 .204 .777 0 0 0M-4.7 .266V13.266H-2.464V2.54L-3.241 .266Z" fill="#231f20"/>
<path transform="matrix(1,0,0,-1,123.4528,35.6395)" d="M0 0H2.236V-5.137H7.6V0H9.836V-12.3H7.6V-7.088H2.236V-12.3H0Z" fill="#231f20"/>
<path transform="matrix(1,0,0,-1,154.1822,48.2051)" d="M0 0C-.612 0-1.185 .135-1.715 .402-2.245 .671-2.811 1.081-3.411 1.63L-9.419 7.069C-9.817 7.429-10.144 7.843-10.4 8.311-10.655 8.779-10.783 9.268-10.783 9.78-10.783 10.335-10.622 10.839-10.3 11.291-9.978 11.742-9.507 12.103-8.888 12.371-8.269 12.639-7.517 12.774-6.633 12.774-5.78 12.774-5.052 12.641-4.449 12.376-3.846 12.11-3.382 11.753-3.061 11.305-2.738 10.856-2.577 10.361-2.577 9.817-2.577 9.248-2.716 8.739-2.994 8.287-3.272 7.836-3.689 7.431-4.245 7.074-4.801 6.717-5.496 6.399-6.33 6.121L-7.505 7.221C-6.936 7.442-6.47 7.668-6.107 7.898-5.744 8.129-5.475 8.377-5.302 8.643-5.128 8.907-5.041 9.205-5.041 9.533-5.041 9.912-5.188 10.225-5.481 10.471-5.776 10.717-6.159 10.841-6.633 10.841-7.182 10.841-7.601 10.706-7.888 10.438-8.176 10.169-8.32 9.842-8.32 9.457-8.32 9.167-8.247 8.892-8.102 8.632-7.957 8.374-7.732 8.105-7.429 7.827L-1.611 2.577C-1.377 2.381-1.161 2.232-.962 2.128-.763 2.024-.518 1.972-.227 1.972 .076 1.972 .337 2.082 .555 2.303 .772 2.524 .891 2.881 .91 3.373H2.938C2.913 2.344 2.657 1.524 2.17 .914 1.684 .305 .96 0 0 0M-7.505 0C-8.206 0-8.863 .095-9.476 .285-10.089 .474-10.629 .74-11.096 1.081-11.563 1.422-11.929 1.821-12.191 2.279-12.453 2.737-12.584 3.234-12.584 3.772-12.584 4.744-12.188 5.484-11.394 5.989-10.602 6.494-9.501 6.804-8.092 6.917L-7.372 5.705C-8.339 5.623-9.038 5.429-9.471 5.122-9.904 4.816-10.12 4.409-10.12 3.905-10.12 3.557-10.016 3.243-9.807 2.962-9.599 2.681-9.299 2.455-8.907 2.284-8.515 2.114-8.041 2.028-7.486 2.028-6.778 2.028-6.124 2.169-5.524 2.45-4.924 2.731-4.37 3.123-3.861 3.625-3.353 4.127-2.89 4.718-2.473 5.397-2.056 6.075-1.687 6.816-1.364 7.619L.133 6.785C-.208 5.774-.63 4.854-1.132 4.023-1.635 3.192-2.208 2.476-2.852 1.877-3.496 1.276-4.209 .813-4.989 .488-5.769 .163-6.608 0-7.505 0" fill="#231f20"/>
<path transform="matrix(1,0,0,-1,169.173,48.2051)" d="M0 0C-1.08 0-2.02 .257-2.819 .772-3.618 1.287-4.239 2.025-4.681 2.985-5.123 3.945-5.344 5.099-5.344 6.444-5.344 7.834-5.116 9-4.657 9.945-4.2 10.889-3.568 11.603-2.762 12.086-1.957 12.57-1.036 12.812 0 12.812 1.434 12.812 2.553 12.464 3.359 11.77 4.165 11.074 4.681 10.171 4.908 9.059L2.52 8.623C2.325 9.268 2.012 9.789 1.582 10.187 1.153 10.585 .625 10.784 0 10.784-.55 10.784-1.046 10.625-1.488 10.305-1.93 9.986-2.282 9.505-2.544 8.86-2.807 8.216-2.938 7.411-2.938 6.444-2.938 5.534-2.823 4.75-2.592 4.094-2.361 3.437-2.028 2.931-1.592 2.577-1.156 2.224-.626 2.047 0 2.047 .802 2.047 1.423 2.261 1.862 2.687 2.301 3.113 2.52 3.658 2.52 4.321H4.908C4.908 3.405 4.711 2.626 4.316 1.986 3.921 1.344 3.357 .853 2.624 .512 1.892 .171 1.017 0 0 0" fill="#231f20"/>
<path transform="matrix(1,0,0,-1,180.2506,46.2528)" d="M0 0C.442 0 .835 .109 1.179 .327 1.524 .545 1.795 .868 1.995 1.298 2.193 1.728 2.293 2.262 2.293 2.899 2.293 3.873 2.102 4.605 1.72 5.098 1.337 5.591 .815 5.837 .151 5.837-.297 5.837-.695 5.728-1.043 5.51-1.39 5.292-1.663 4.965-1.862 4.53-2.061 4.094-2.161 3.55-2.161 2.899-2.161 1.939-1.967 1.216-1.578 .729-1.19 .243-.664 0 0 0M.076-1.952C-.765-1.952-1.524-1.771-2.203-1.412-2.882-1.052-3.421-.513-3.819 .203-4.217 .92-4.416 1.819-4.416 2.899-4.416 3.998-4.217 4.909-3.819 5.629-3.421 6.349-2.882 6.886-2.203 7.24-1.524 7.593-.765 7.77 .076 7.77 .903 7.77 1.653 7.593 2.326 7.24 2.999 6.886 3.534 6.349 3.932 5.629 4.331 4.909 4.529 3.998 4.529 2.899 4.529 1.819 4.331 .92 3.932 .203 3.534-.513 2.999-1.052 2.326-1.412 1.653-1.771 .903-1.952 .076-1.952" fill="#231f20"/>
<path transform="matrix(1,0,0,-1,186.1248,46.6318)" d="M0 0C0 .429 .146 .79 .436 1.08 .727 1.371 1.099 1.516 1.554 1.516 2.009 1.516 2.388 1.371 2.691 1.08 2.995 .79 3.146 .433 3.146 .009 3.146-.42 2.995-.775 2.691-1.056 2.388-1.337 2.009-1.478 1.554-1.478 1.099-1.478 .727-1.336 .436-1.052 .146-.767 0-.417 0 0" fill="#231f20"/>
<path transform="matrix(1,0,0,-1,200.6799,40.7188)" d="M0 0 6.14-7.221H3.26L-1.554-1.459ZM2.729 5.079H5.799L-2.312-3.222V-.171ZM-4.378 5.079H-2.1229997V-7.221H-4.378Z" fill="#231f20"/>
<path transform="matrix(1,0,0,-1,216.4854,47.9394)" d="M0 0-.322 2.71V4.833L-3.089 4.889V6.311H1.819V0ZM-3.298-.266C-4.302-.266-5.209 0-6.017 .53-6.826 1.061-7.469 1.802-7.946 2.753-8.423 3.703-8.661 4.814-8.661 6.084-8.661 7.088-8.514 7.988-8.221 8.784-7.927 9.58-7.518 10.259-6.993 10.822-6.469 11.384-5.853 11.812-5.146 12.106-4.438 12.399-3.671 12.546-2.843 12.546-1.693 12.546-.728 12.297 .052 11.797 .832 11.299 1.44 10.512 1.876 9.437L-.417 8.907C-.739 9.431-1.11 9.831-1.53 10.106-1.951 10.38-2.426 10.518-2.956 10.518-3.563 10.518-4.116 10.34-4.615 9.983-5.114 9.625-5.512 9.116-5.809 8.453-6.106 7.79-6.254 6.999-6.254 6.084-6.254 5.224-6.123 4.473-5.861 3.828-5.599 3.184-5.231 2.682-4.757 2.322-4.284 1.961-3.734 1.782-3.108 1.782-2.577 1.782-2.102 1.9-1.682 2.137-1.262 2.374-.931 2.713-.687 3.156-.444 3.598-.322 4.131-.322 4.757H.171C.171 3.734 .049 2.846-.195 2.094-.438 1.342-.815 .761-1.327 .35-1.838-.06-2.496-.266-3.298-.266" fill="#231f20"/>
<path transform="matrix(1,0,0,-1,87.3029,30.4148)" d="M0 0V15.944H3.873V3.356H10.044V0Z" fill="#231f20"/>
<path transform="matrix(1,0,0,-1,104.6882,17.582402)" d="M0 0H-1.689V-3.761H-.068C1.374-3.761 2.702-3.333 2.702-1.824 2.702-.293 1.374 0 0 0M.225-6.824H-1.689V-12.837H-5.54V3.108H.315C3.806 3.108 6.553 1.847 6.553-1.802 6.553-5.495 3.558-6.824 .225-6.824" fill="#231f20"/>
<path transform="matrix(1,0,0,-1,112.6526,22.919602)" d="M0 0V1.707C0 2.184 .066 2.596 .197 2.944 .328 3.292 .54 3.591 .834 3.84 1.127 4.09 1.514 4.304 1.996 4.484L3.867 5.18C4.204 5.311 4.449 5.466 4.602 5.646 4.755 5.825 4.832 6.042 4.832 6.296 4.832 6.527 4.74 6.734 4.556 6.916 4.372 7.098 4.101 7.188 3.742 7.188 3.409 7.188 3.123 7.088 2.882 6.886 2.641 6.685 2.503 6.398 2.468 6.026H.144C.14 6.718 .301 7.284 .627 7.723 .953 8.163 1.387 8.487 1.93 8.695 2.473 8.903 3.064 9.007 3.703 9.007 4.324 9.007 4.89 8.893 5.4 8.665 5.909 8.438 6.316 8.117 6.621 7.704 6.925 7.29 7.077 6.799 7.077 6.23 7.077 5.779 6.996 5.379 6.834 5.029 6.672 4.678 6.411 4.367 6.053 4.093 5.694 3.819 5.217 3.571 4.622 3.348L2.764 2.646C2.51 2.549 2.336 2.456 2.242 2.366 2.148 2.277 2.101 2.16 2.101 2.015V1.917H7.051V0Z" fill="#231f20"/>
<path transform="matrix(1,0,0,-1,0,62.159)" d="M126.344 47.684H130.217V31.739998H126.344Z" fill="#231f20"/>
<path transform="matrix(1,0,0,-1,143.6393,30.419)" d="M0 0-6.418 10.427H-6.486L-6.396 0H-10.134V15.944H-5.743L.653 5.54H.721L.63 15.944H4.369V0Z" fill="#231f20"/>
<path transform="matrix(1,0,0,-1,159.3134,30.8243)" d="M0 0C-5.09 0-8.76 3.378-8.76 8.4-8.76 13.512-4.977 16.778-.113 16.778 2.387 16.778 4.707 15.944 6.035 14.661L3.603 11.891C2.86 12.746 1.576 13.377 .023 13.377-2.68 13.377-4.662 11.26-4.662 8.4-4.662 5.472-2.928 3.378 .203 3.378 1.103 3.378 1.937 3.513 2.612 3.806V6.711H-.428V9.819H6.148V1.374C4.594 .563 2.455 0 0 0" fill="#231f20"/>
<path transform="matrix(1,0,0,-1,168.6145,30.419)" d="M0 0V15.944H10.719V12.679H3.716V9.684H10.337V6.598H3.716V3.288H11.125V0Z" fill="#231f20"/>
<path transform="matrix(1,0,0,-1,192.4183,30.419)" d="M0 0-6.418 10.427H-6.486L-6.396 0H-10.134V15.944H-5.743L.653 5.54H.721L.63 15.944H4.369V0Z" fill="#231f20"/>
<path transform="matrix(1,0,0,-1,0,62.159)" d="M200.075 47.684H203.948V31.739998H200.075Z" fill="#231f20"/>
<path transform="matrix(1,0,0,-1,207.2367,30.419)" d="M0 0V15.944H10.719V12.679H3.716V9.684H10.337V6.598H3.716V3.288H11.125V0Z" fill="#231f20"/>
<path transform="matrix(1,0,0,-1,227.5499,30.8468)" d="M0 0C-4.189 0-6.801 2.612-6.801 6.441V16.372H-2.973V6.756C-2.973 5.045-2.139 3.468 .023 3.468 2.207 3.468 3.018 5.045 3.018 6.756V16.372H6.869V6.441C6.869 2.612 4.166 0 0 0" fill="#231f20"/>
<path transform="matrix(1,0,0,-1,243.3367,17.582402)" d="M0 0H-2.049V-3.716H-.225C1.013-3.716 2.567-3.401 2.567-1.779 2.567-.293 1.148 0 0 0M2.725-12.837-.721-6.508H-2.027V-12.837H-5.81V3.108H.27C3.333 3.108 6.373 1.937 6.373-1.712 6.373-3.851 5.112-5.382 3.063-6.013L7.229-12.837Z" fill="#231f20"/>
<path transform="matrix(1,0,0,-1,252.4575,30.419)" d="M0 0V15.944H10.719V12.679H3.716V9.684H10.337V6.598H3.716V3.288H11.125V0Z" fill="#231f20"/>
<path transform="matrix(1,0,0,-1,84.1711,17.0103)" d="M0 0C-.09-.042-.178-.084-.262-.124-1.08-.512-1.838-.927-2.051-1.045L-2.075-1.058C-3.597-1.898-3.853-2.645-3.855-2.999-3.855-3.001-3.855-3.003-3.855-3.005V-13.408-13.415H0C.004-13.41 0 0 0 0" fill="#231f20"/>
<path transform="matrix(1,0,0,-1,81.7259,17.397999)" d="M0 0V0C.218 .121 1.006 .552 1.844 .949 2.011 1.028 2.231 1.128 2.444 1.223V2.927H-1.41V-1.022C-1.084-.692-.621-.343 0 0" fill="#231f20"/>
<path transform="matrix(1,0,0,-1,0,62.159)" d="M.224 0H62.383V62.159H.224Z" fill="#231f20"/>
<path transform="matrix(1,0,0,-1,0,62.159)" d="M37.701 12.842H52.375V21.64H37.701Z" fill="#ffffff"/>
<path transform="matrix(1,0,0,-1,16.8648,17.415)" d="M0 0C.38 .18 .884 .409 1.37 .627V4.573H-7.428V-4.499C-6.684-3.747-5.666-2.97-4.248-2.187-4.248-2.187-1.914-.907 0 0" fill="#ffffff"/>
<path transform="matrix(1,0,0,-1,27.0153,12.8417019)" d="M0 0V-20.743C.744-19.991 1.8-19.194 3.218-18.411 3.716-18.135 5.514-17.151 7.428-16.244 7.794-16.071 8.275-15.852 8.744-15.642 8.744-15.642 8.744-10.241 8.744-9.831 8.743-8.465 10.08-7.357 11.445-7.358L14.238-7.357C16.996-7.38 17.708-10.871 16.799-12.784 15.938-14.207 14.237-15.075 12.791-15.768 11.372-16.405 9.646-17.177 8.199-17.871 6.333-18.755 4.063-20.002 4.063-20.002 .588-21.919 0-23.635 0-24.432V-27.678H-8.781V-5.86C-8.986-5.957-9.187-6.052-9.379-6.144-11.245-7.028-13.003-7.99-13.489-8.259-16.963-10.177-17.573-11.896-17.578-12.705V-36.475H8.744V-27.678C8.744-26.328 9.988-25.741 10.629-25.402 11.084-25.161 13.523-24.108 15.659-23.128 19.265-21.554 23-19.475 24.868-15.835 26.071-13.559 26.341-10.871 26.045-8.325 25.7-4.515 23.248-2.038 19.924-.722 18.378-.066 16.404-.024 14.542 0 11.055 0 0 0 0 0" fill="#ffffff"/>
</g>
</g>
</svg>
