<svg xmlns="http://www.w3.org/2000/svg" width="119.77" height="119.77" viewBox="0 0 119.77 119.77">
<!-- ilp2 logo, converted 1:1 from ILP2_ALL_0_00-000_Logo-RGB-Bi-s-w_3_260323.pdf -->
<defs>
<clipPath id="clip_1">
<path transform="matrix(1,0,0,-1,0,119.77)" d="M0 119.77H119.77V0H0Z"/>
</clipPath>
</defs>
<path transform="matrix(1,0,0,-1,0,119.77)" d="M0 0H119.77V119.77H0Z" fill="#231f20"/>
<path transform="matrix(1,0,0,-1,0,119.77)" d="M72.211 24.744H100.486V41.695H72.211Z" fill="#ffffff"/>
<g clip-path="url(#clip_1)">
<path transform="matrix(1,0,0,-1,32.0634,33.555696)" d="M0 0C.733 .347 1.703 .788 2.639 1.207V8.812H-14.312V-8.668C-12.88-7.22-10.917-5.723-8.185-4.215-8.185-4.215-3.687-1.747 0 0" fill="#ffffff"/>
<path transform="matrix(1,0,0,-1,51.6217,24.743798)" d="M0 0V-39.968C1.433-38.52 3.469-36.983 6.201-35.474 7.159-34.944 10.625-33.047 14.312-31.3 15.018-30.965 15.945-30.544 16.849-30.139 16.849-30.139 16.849-19.733 16.848-18.942 16.846-16.311 19.423-14.176 22.053-14.178L27.434-14.176C32.748-14.22 34.12-20.947 32.369-24.632 30.711-27.375 27.432-29.047 24.646-30.383 21.912-31.611 18.586-33.097 15.798-34.435 12.203-36.139 7.828-38.54 7.828-38.54 1.133-42.235 0-45.542 0-47.077V-53.331H-16.919V-11.291C-17.314-11.477-17.702-11.661-18.073-11.838-21.667-13.542-25.054-15.395-25.991-15.914-32.685-19.609-33.86-22.921-33.871-24.48V-70.282H16.849V-53.331C16.849-50.73 19.245-49.598 20.48-48.945 21.357-48.481 26.057-46.451 30.172-44.563 37.12-41.531 44.318-37.524 47.917-30.511 50.235-26.126 50.755-20.946 50.185-16.04 49.52-8.699 44.794-3.927 38.391-1.391 35.411-.127 31.607-.046 28.021 0 21.3 0 0 0 0 0" fill="#ffffff"/>
</g>
</svg>
